<svg xmlns="http://www.w3.org/2000/svg" width="37.801" height="44.539" viewBox="0 0 37.801 44.539"><path d="M32.2,5.442H24.534c0-3-2.75-5.442-6.133-5.442s-6.133,2.441-6.133,5.442H4.6A4.365,4.365,0,0,0,0,9.524V39.457a4.365,4.365,0,0,0,4.6,4.082H32.2a4.365,4.365,0,0,0,4.6-4.082V9.524A4.365,4.365,0,0,0,32.2,5.442ZM9.2,36.056a2.055,2.055,0,1,1,0-4.082,2.055,2.055,0,1,1,0,4.082Zm0-8.164a2.177,2.177,0,0,1-2.3-2.041A2.177,2.177,0,0,1,9.2,23.81a2.177,2.177,0,0,1,2.3,2.041A2.177,2.177,0,0,1,9.2,27.892Zm0-8.164a2.177,2.177,0,0,1-2.3-2.041,2.177,2.177,0,0,1,2.3-2.041,2.177,2.177,0,0,1,2.3,2.041A2.177,2.177,0,0,1,9.2,19.729ZM18.4,3.4a2.177,2.177,0,0,1,2.3,2.041,2.177,2.177,0,0,1-2.3,2.041,2.177,2.177,0,0,1-2.3-2.041A2.177,2.177,0,0,1,18.4,3.4ZM30.667,34.7a.73.73,0,0,1-.767.68H16.1a.73.73,0,0,1-.767-.68V33.335a.73.73,0,0,1,.767-.68H29.9a.73.73,0,0,1,.767.68Zm0-8.164a.73.73,0,0,1-.767.68H16.1a.73.73,0,0,1-.767-.68V25.171a.73.73,0,0,1,.767-.68H29.9a.73.73,0,0,1,.767.68Zm0-8.164a.73.73,0,0,1-.767.68H16.1a.73.73,0,0,1-.767-.68V17.007a.73.73,0,0,1,.767-.68H29.9a.73.73,0,0,1,.767.68Z" transform="translate(0.5 0.5)" fill="#fff" stroke="rgba(82,76,181,0.44)" stroke-linejoin="round" stroke-width="1"/></svg>